<svg id="Capa_1" enable-background="new 0 0 512.097 512.097" height="512" viewBox="0 0 512.097 512.097" width="512" xmlns="http://www.w3.org/2000/svg"><g><path d="m330.813 96.096-229.33 229.33 15.851 1.429c17.906 1.338 32.573 14.976 35.508 32.426 17.447 2.935 31.077 17.596 32.426 35.505l1.421 15.861 229.338-229.338z"/><path d="m155.375 397.345c-.59-6.863-7.351-10.367-12.866-7.722-5.744 2.753-12.603 1.578-17.103-2.933-4.499-4.51-5.659-11.37-2.893-17.108 2.57-5.334-.715-12.204-7.745-12.836l-33.688-3.037-79.02 135.845c-5.805 9.979 1.406 22.543 12.971 22.543 2.584 0 5.187-.667 7.537-2.035l135.827-79.01z"/><path d="m497.172 28.03-13.08-13.08c-19.931-19.932-52.199-19.935-72.133 0l-59.934 59.934 85.213 85.213 59.934-59.934c19.887-19.887 19.887-52.246 0-72.133z"/></g></svg>